<svg xmlns="http://www.w3.org/2000/svg" xmlns:xlink="http://www.w3.org/1999/xlink" viewBox="0 0 714.9 134.47"><defs><style>.cls-1{isolation:isolate;}.cls-2{fill:#fff;}.cls-3{fill:url(#Безымянный_градиент_12);}.cls-4,.cls-6,.cls-8{opacity:0.32;mix-blend-mode:color-dodge;}.cls-4{fill:url(#Безымянный_градиент_6);}.cls-5{fill:url(#Безымянный_градиент_12-2);}.cls-6{fill:url(#Безымянный_градиент_6-2);}.cls-7{fill:url(#Безымянный_градиент_12-3);}.cls-8{fill:url(#Безымянный_градиент_6-3);}.cls-9{fill:#4aafb4;}</style><linearGradient id="Безымянный_градиент_12" x1="44.11" y1="122.34" x2="207.08" y2="67.78" gradientUnits="userSpaceOnUse"><stop offset="0" stop-color="#114481"/><stop offset="1" stop-color="#3ea7aa"/></linearGradient><linearGradient id="Безымянный_градиент_6" x1="86.41" y1="111.47" x2="185.4" y2="78.33" gradientUnits="userSpaceOnUse"><stop offset="0" stop-color="#fff"/><stop offset="1" stop-color="#2484c6" stop-opacity="0"/></linearGradient><linearGradient id="Безымянный_градиент_12-2" x1="22.44" y1="57.52" x2="185.38" y2="2.98" xlink:href="#Безымянный_градиент_12"/><linearGradient id="Безымянный_градиент_6-2" x1="135.5" y1="26.83" x2="0" y2="26.83" xlink:href="#Безымянный_градиент_6"/><linearGradient id="Безымянный_градиент_12-3" x1="34.44" y1="93.44" x2="197.4" y2="38.89" xlink:href="#Безымянный_градиент_12"/><linearGradient id="Безымянный_градиент_6-3" x1="166.37" y1="68.37" x2="213.65" y2="52.54" xlink:href="#Безымянный_градиент_6"/></defs><title>Ресурс 1</title><g class="cls-1"><g id="Слой_2" data-name="Слой 2"><g id="Слой_1-2" data-name="Слой 1"><polygon class="cls-2" points="90.55 5.84 103.08 0 171.54 42.47 122.37 134.47 107.54 103.43 82.21 84.94 41.32 84.94 90.55 5.84"/><polygon class="cls-3" points="41.32 84.94 85.7 91.71 122.37 134.47 139.78 58.56 41.32 84.94"/><polygon class="cls-4" points="85.7 91.71 122.37 134.47 139.78 58.56 85.7 91.71"/><polygon class="cls-5" points="25.4 22.78 0 53.65 41.32 84.94 135.5 42.8 103.08 0 25.4 22.78"/><path class="cls-6" d="M25.4,22.78,0,53.65c-.21.13,39.82-10.21,39.82-10.21l95.68-.64L103.08,0Z"/><polygon class="cls-7" points="170.91 20.79 103.08 0 161.3 44.78 122.37 134.47 186.62 107.65 199.09 64.7 170.91 20.79"/><polygon class="cls-8" points="161.3 44.78 186.62 107.65 177.75 58.56 199.09 64.7 175.54 45.99 170.91 20.79 161.3 44.78"/><path class="cls-9" d="M273.4,76.2c-.46-8.65-1-19-.92-26.77h-.28c-2.12,7.27-4.69,15-7.82,23.55l-10.95,30.08h-6.07l-10-29.53c-2.94-8.74-5.43-16.74-7.18-24.1H230c-.18,7.73-.64,18.12-1.2,27.41l-1.66,26.59h-7.64l4.32-62H234l10.58,30c2.58,7.64,4.69,14.44,6.26,20.88h.28c1.56-6.25,3.77-13.06,6.53-20.88l11-30h10.21l3.86,62H275Z"/><path class="cls-9" d="M299.89,82.64c.18,10.95,7.18,15.46,15.27,15.46a29.27,29.27,0,0,0,12.33-2.3l1.38,5.8a36.06,36.06,0,0,1-14.81,2.76c-13.71,0-21.9-9-21.9-22.45s7.91-24,20.88-24c14.54,0,18.4,12.79,18.4,21a30.59,30.59,0,0,1-.28,3.77Zm23.73-5.8c.09-5.15-2.12-13.16-11.22-13.16-8.19,0-11.78,7.54-12.42,13.16Z"/><path class="cls-9" d="M373.22,101.77a29.81,29.81,0,0,1-12.79,2.58c-13.43,0-22.17-9.11-22.17-22.72S347.64,58,362.18,58a27.05,27.05,0,0,1,11.22,2.3l-1.84,6.26a18.76,18.76,0,0,0-9.38-2.12c-10.21,0-15.73,7.54-15.73,16.84,0,10.3,6.62,16.65,15.46,16.65a23,23,0,0,0,9.94-2.21Z"/><path class="cls-9" d="M413.88,101.77a29.81,29.81,0,0,1-12.79,2.58c-13.43,0-22.17-9.11-22.17-22.72S388.3,58,402.84,58a27.05,27.05,0,0,1,11.22,2.3l-1.84,6.26a18.76,18.76,0,0,0-9.38-2.12c-10.21,0-15.73,7.54-15.73,16.84,0,10.3,6.62,16.65,15.46,16.65a23,23,0,0,0,9.94-2.21Z"/><path class="cls-9" d="M448,103.43l-.64-5.61h-.28a16.58,16.58,0,0,1-13.62,6.62c-9,0-13.62-6.35-13.62-12.79,0-10.76,9.57-16.65,26.77-16.56v-.92c0-3.68-1-10.3-10.12-10.3a22.19,22.19,0,0,0-11.59,3.31l-1.84-5.34a27.64,27.64,0,0,1,14.63-4c13.62,0,16.93,9.29,16.93,18.22V92.76a62.62,62.62,0,0,0,.74,10.67Zm-1.2-22.72C438,80.52,428,82.09,428,90.73c0,5.24,3.5,7.73,7.64,7.73A11.08,11.08,0,0,0,446.36,91a8.47,8.47,0,0,0,.46-2.58Z"/><path class="cls-9" d="M467.7,71c0-4.6-.09-8.37-.37-12.05h7.18l.46,7.36h.18a16.38,16.38,0,0,1,14.72-8.37c6.16,0,15.73,3.68,15.73,19v26.59h-8.1V77.76c0-7.18-2.67-13.16-10.3-13.16a11.5,11.5,0,0,0-10.86,8.28,11.63,11.63,0,0,0-.55,3.77v26.77h-8.1Z"/><path class="cls-9" d="M559.05,80.8c0,16.47-11.41,23.64-22.17,23.64-12.05,0-21.34-8.83-21.34-22.91,0-14.9,9.75-23.64,22.08-23.64C550.41,57.89,559.05,67.18,559.05,80.8Zm-35.33.46c0,9.75,5.61,17.11,13.52,17.11,7.73,0,13.52-7.27,13.52-17.29C550.78,73.53,547,64,537.44,64S523.73,72.79,523.73,81.26Z"/><path class="cls-9" d="M568.44,93.68a28.36,28.36,0,0,0,14.35,4c8.19,0,13-4.32,13-10.58,0-5.8-3.31-9.11-11.68-12.33C574,71.23,567.7,66,567.7,57.25c0-9.66,8-16.83,20.06-16.83,6.35,0,10.95,1.47,13.71,3L599.26,50A24.7,24.7,0,0,0,587.48,47C579,47,575.8,52.1,575.8,56.33c0,5.8,3.77,8.65,12.33,12,10.49,4,15.82,9.11,15.82,18.22,0,9.57-7.08,17.85-21.71,17.85-6,0-12.51-1.75-15.82-4Z"/><path class="cls-9" d="M655.47,80.8c0,16.47-11.41,23.64-22.17,23.64-12.05,0-21.34-8.83-21.34-22.91,0-14.9,9.75-23.64,22.08-23.64C646.82,57.89,655.47,67.18,655.47,80.8Zm-35.33.46c0,9.75,5.61,17.11,13.52,17.11,7.73,0,13.52-7.27,13.52-17.29,0-7.54-3.77-17.11-13.34-17.11S620.14,72.79,620.14,81.26Z"/><path class="cls-9" d="M666.51,103.43V65.07h-6.26V58.9h6.26V56.79c0-6.26,1.38-12,5.15-15.55a15.49,15.49,0,0,1,10.86-4.14,18.78,18.78,0,0,1,6.9,1.29l-1.1,6.26a12.09,12.09,0,0,0-5.15-1c-6.9,0-8.65,6.07-8.65,12.88V58.9h10.76v6.16H674.51v38.36Z"/><path class="cls-9" d="M703.31,46.11V58.9H714.9v6.16H703.31v24c0,5.52,1.56,8.65,6.07,8.65a18,18,0,0,0,4.69-.55l.37,6.07a19.83,19.83,0,0,1-7.18,1.1c-3.77,0-6.81-1.2-8.74-3.4-2.3-2.39-3.13-6.35-3.13-11.59V65.07h-6.9V58.9h6.9V48.23Z"/></g></g></g></svg>